HIERARCHY
ROOT Hips
{
 OFFSET 0.000000 0.000000 0.000000
 CHANNELS 6 Xposition Yposition Zposition Yrotation Xrotation Zrotation
 JOINT Chest
 {
  OFFSET 0.000000 10.247883 -1.138654
  CHANNELS 3 Yrotation Xrotation Zrotation
  JOINT Chest2
  {
   OFFSET 0.000000 11.376386 0.000000
   CHANNELS 3 Yrotation Xrotation Zrotation
   JOINT Chest3
   {
    OFFSET 0.000000 10.386903 -0.002195
    CHANNELS 3 Yrotation Xrotation Zrotation
    JOINT Chest4
    {
     OFFSET 0.000000 10.375307 -0.002198
     CHANNELS 3 Yrotation Xrotation Zrotation
     JOINT Neck
     {
      OFFSET 0.000000 14.522000 0.000000
      CHANNELS 3 Yrotation Xrotation Zrotation
      JOINT Head
      {
       OFFSET 0.000000 9.660085 0.004721
       CHANNELS 3 Yrotation Xrotation Zrotation
       End Site
       {
        OFFSET 0.000000 17.933517 0.000635
       }
      }
     }
     JOINT RightCollar
     {
      OFFSET -3.163951 8.141633 0.000000
      CHANNELS 3 Yrotation Xrotation Zrotation
      JOINT RightShoulder
      {
       OFFSET -14.814685 0.000000 0.000000
       CHANNELS 3 Yrotation Xrotation Zrotation
       JOINT RightElbow
       {
        OFFSET -31.670241 0.000000 0.000000
        CHANNELS 3 Yrotation Xrotation Zrotation
        JOINT RightWrist
        {
         OFFSET -25.897132 0.000000 0.000000
         CHANNELS 3 Yrotation Xrotation Zrotation
         End Site
         {
          OFFSET -19.358197 0.000000 0.000000
         }
        }
       }
      }
     }
     JOINT LeftCollar
     {
      OFFSET 3.163951 8.141633 0.000000
      CHANNELS 3 Yrotation Xrotation Zrotation
      JOINT LeftShoulder
      {
       OFFSET 14.814685 0.000000 0.000000
       CHANNELS 3 Yrotation Xrotation Zrotation
       JOINT LeftElbow
       {
        OFFSET 31.670241 0.000000 0.000000
        CHANNELS 3 Yrotation Xrotation Zrotation
        JOINT LeftWrist
        {
         OFFSET 25.897132 0.000000 0.000000
         CHANNELS 3 Yrotation Xrotation Zrotation
         End Site
         {
          OFFSET 19.358197 0.000000 0.000000
         }
        }
       }
      }
     }
    }
   }
  }
 }
 JOINT RightHip
 {
  OFFSET -8.434534 0.006524 -0.000725
  CHANNELS 3 Yrotation Xrotation Zrotation
  JOINT RightKnee
  {
   OFFSET 0.000000 -43.604351 -0.000519
   CHANNELS 3 Yrotation Xrotation Zrotation
   JOINT RightAnkle
   {
    OFFSET 0.000000 -42.601680 -0.000874
    CHANNELS 3 Yrotation Xrotation Zrotation
    JOINT RightToe
    {
     OFFSET 0.000000 -7.938317 18.072015
     CHANNELS 3 Yrotation Xrotation Zrotation
     End Site
     {
      OFFSET 0.000000 -1.689196 7.421192
     }
    }
   }
  }
 }
 JOINT LeftHip
 {
  OFFSET 8.434534 0.004223 -0.000469
  CHANNELS 3 Yrotation Xrotation Zrotation
  JOINT LeftKnee
  {
   OFFSET 0.000000 -43.604351 -0.000519
   CHANNELS 3 Yrotation Xrotation Zrotation
   JOINT LeftAnkle
   {
    OFFSET 0.000000 -42.601680 -0.000874
    CHANNELS 3 Yrotation Xrotation Zrotation
    JOINT LeftToe
    {
     OFFSET 0.000000 -7.938317 18.072015
     CHANNELS 3 Yrotation Xrotation Zrotation
     End Site
     {
      OFFSET 0.000000 -1.689196 7.421192
     }
    }
   }
  }
 }
}
MOTION
Frames: 14
Frame Time: 0.016667
0.000000 95.782144 0.000000 0.000000 6.340192 0.000000 0.000000 -6.340192 0.000000 0.000000 -5.826342 0.000000 0.000000 -0.005910 0.000000 0.000000 5.832252 0.000000 0.000000 12.610213 0.000000 0.000000 -9.243752 0.000000 0.000000 0.000000 0.000000 0.000000 0.000000 0.000000 2.309063 0.000000 0.000000 -2.309063 0.000000 0.000000 0.000000 0.000000 0.000000 0.000000 0.000000 0.000000 -2.309063 0.000000 0.000000 2.309063 0.000000 0.000000 0.000000 -3.591006 0.000000 0.000000 1.872585 0.000000 0.000000 -4.621771 0.000000 0.000000 0.000000 0.000000 0.000000 -3.587706 0.000000 0.000000 1.905768 0.000000 0.000000 -4.658254 0.000000 0.000000 0.000000 0.000000
18.776819 95.585012 -20.613586 23.240609 40.686899 8.608141 4.825144 4.286009 3.432727 1.960617 -3.883967 1.482442 1.957057 1.933063 1.681538 1.590889 7.290485 1.264807 -4.877415 0.667546 -1.466078 -9.487487 -34.696393 0.180988 1.114264 0.739599 6.228819 48.943897 -37.200880 13.974721 9.041936 2.064615 -8.349746 8.303299 12.906142 -55.223086 -5.114753 -5.704592 -6.397323 -11.601803 -7.104335 -81.486359 -10.506856 -2.344778 -5.691532 3.125008 6.162881 3.343469 -1.402065 -54.705420 -3.829318 -2.050780 21.626830 -0.028799 -12.864195 -7.730706 0.589210 0.000777 -0.207466 -0.233286 5.062270 -41.490160 -5.518231 -1.003564 -1.425525 -0.827876 0.342682 5.117232 -2.910574 0.011888 -2.549474 -0.573221
18.702851 95.544304 -20.603318 23.441605 40.510853 8.791715 4.746843 4.347470 3.412786 1.926429 -3.857460 1.473565 1.923019 1.959687 1.669192 1.564385 7.310341 1.255538 -4.859818 0.643421 -1.464444 -9.453259 -34.742042 0.175086 1.114205 0.755004 6.221722 48.973582 -37.255058 14.011838 9.061019 2.087760 -8.353150 8.239499 12.940680 -55.332241 -5.070024 -5.669234 -6.422954 -11.635781 -7.106731 -81.398774 -10.540189 -2.358433 -5.732644 3.110372 6.175489 3.282979 -1.267250 -54.615338 -4.032866 -2.181223 21.735365 -0.084500 -12.870771 -7.720652 0.582385 0.002296 -0.426077 -0.483346 5.027111 -41.451209 -5.677852 -1.728636 -1.238543 -0.713109 1.001956 5.046959 -2.955531 0.012883 -2.600684 -0.595480
18.630695 95.504611 -20.593865 23.639366 40.334454 8.974469 4.670161 4.408979 3.391814 1.893025 -3.830917 1.464237 1.889763 1.986344 1.656478 1.538441 7.330224 1.245991 -4.842825 0.619490 -1.462708 -9.420349 -34.787277 0.169767 1.117562 0.767524 6.215440 48.994573 -37.306298 14.049154 9.080128 2.109576 -8.353538 8.177538 12.973245 -55.440066 -5.025510 -5.634694 -6.448525 -11.672992 -7.110865 -81.311135 -10.572615 -2.373261 -5.772695 3.096152 6.186946 3.223047 -1.133608 -54.526086 -4.236480 -2.310463 21.846208 -0.141130 -12.876551 -7.711312 0.577589 0.004488 -0.638966 -0.725158 4.981323 -41.417583 -5.832175 -2.449994 -1.039805 -0.601240 1.669092 4.973428 -2.997842 0.013975 -2.651474 -0.620843
18.565786 95.468972 -20.587669 23.828013 40.158117 9.157851 4.600012 4.470738 3.367037 1.862740 -3.804247 1.453175 1.859619 2.013116 1.642346 1.514726 7.350203 1.235365 -4.828218 0.596353 -1.460544 -9.392764 -34.830859 0.166894 1.134567 0.768494 6.212404 48.980763 -37.345674 14.087453 9.099403 2.126006 -8.341975 8.123128 12.997984 -55.542492 -4.981849 -5.603452 -6.474003 -11.723166 -7.121863 -81.223284 -10.601530 -2.392629 -5.808474 3.083548 6.193935 3.165404 -1.001843 -54.441998 -4.443916 -2.434094 21.966797 -0.200955 -12.879112 -7.704833 0.580872 0.007003 -0.829301 -0.933674 4.891951 -41.405980 -5.964646 -3.157377 -0.799090 -0.490400 2.367644 4.884525 -3.027330 0.015351 -2.700598 -0.658589
18.513557 95.440431 -20.587175 24.001692 39.982280 9.343354 4.541309 4.532957 3.335711 1.837910 -3.777357 1.439100 1.834919 2.040090 1.625754 1.494912 7.370344 1.222863 -4.817782 0.574612 -1.457627 -9.374520 -34.871550 0.168330 1.175440 0.749236 6.215028 48.906039 -37.364223 14.127545 9.118991 2.132973 -8.309539 8.082011 13.009054 -55.635441 -4.939677 -5.577986 -6.499349 -11.796064 -7.144826 -81.135071 -10.624325 -2.419902 -5.836757 3.073768 6.193133 3.111785 -0.872505 -54.367420 -4.659099 -2.547731 22.104589 -0.266271 -12.876015 -7.703366 0.598274 0.009272 -0.980279 -1.083814 4.726225 -41.433314 -6.058968 -3.840373 -0.485981 -0.379980 3.121148 4.768167 -3.034326 0.017214 -2.746801 -0.717997
18.454117 95.410163 -20.600312 24.289584 39.700916 9.676754 4.455113 4.636088 3.271524 1.802388 -3.732831 1.410241 1.799598 2.084727 1.593294 1.465923 7.403682 1.198374 -4.806012 0.537854 -1.449507 -9.358519 -34.939816 0.181622 1.282337 0.666006 6.222743 48.662043 -37.349970 14.229149 9.175108 2.121017 -8.248236 8.021865 13.001360 -55.779158 -4.863465 -5.543412 -6.543731 -11.979469 -7.211118 -80.984003 -10.646281 -2.493272 -5.863789 3.062155 6.175957 3.026323 -0.679524 -54.289982 -5.036447 -2.732734 22.397642 -0.401747 -12.849394 -7.717969 0.669631 0.011392 -1.131290 -1.176771 4.336183 -41.576663 -6.190538 -4.994150 0.201440 -0.191469 4.526047 4.514145 -2.985395 0.021964 -2.822020 -0.883204
18.419837 95.393977 -20.624760 24.547006 39.420276 10.013791 4.391593 4.740249 3.194562 1.777685 -3.687803 1.375500 1.775077 2.129830 1.556049 1.444682 7.437394 1.170233 -4.802537 0.503855 -1.439945 -9.361080 -35.002382 0.203403 1.436420 0.542407 6.241103 48.297576 -37.293729 14.333964 9.231848 2.090167 -8.145622 7.988346 12.966606 -55.904036 -4.790204 -5.520239 -6.587849 -12.208348 -7.300801 -80.832256 -10.656057 -2.582272 -5.875748 3.056269 6.143235 2.948957 -0.489543 -54.231244 -5.430825 -2.898509 22.724820 -0.548890 -12.811403 -7.742587 0.768890 0.011984 -1.204385 -1.153744 3.795793 -41.799058 -6.247424 -6.097774 1.035670 -0.024400 6.039919 4.207044 -2.899674 0.027825 -2.891284 -1.091439
18.406401 95.383903 -20.653931 24.686422 39.109236 10.295818 4.386746 4.850354 3.100826 1.780018 -3.639883 1.332652 1.777562 2.177748 1.513445 1.443288 7.473285 1.137945 -4.816317 0.482850 -1.434111 -9.396881 -35.040028 0.227616 1.668692 0.405811 6.294218 47.794576 -37.200869 14.348110 9.220760 2.052325 -7.894308 8.039040 12.898895 -55.984927 -4.746834 -5.520549 -6.624559 -12.438364 -7.403491 -80.690116 -10.663893 -2.652034 -5.886242 3.059679 6.094134 2.893142 -0.249251 -54.109559 -5.834606 -2.996194 23.002845 -0.661808 -12.791249 -7.757153 0.856338 0.012351 -1.258108 -1.124892 2.972733 -42.050219 -6.070488 -6.952430 1.969007 0.079548 7.555599 3.858130 -2.830260 0.032823 -2.941930 -1.278175
18.407351 95.377762 -20.690510 24.686784 38.754393 10.518586 4.468082 4.979425 2.984505 1.821895 -3.583213 1.278638 1.819569 2.234291 1.463692 1.470976 7.515729 1.100093 -4.861043 0.478420 -1.437240 -9.491514 -35.045676 0.252019 2.058969 0.265059 6.418160 47.051227 -37.122828 14.170541 9.146498 1.982941 -7.412986 8.230492 12.804143 -56.095631 -4.760823 -5.558574 -6.655293 -12.691949 -7.525828 -80.557682 -10.663920 -2.709023 -5.878276 3.056890 6.003258 2.882642 0.093034 -53.901905 -6.275787 -2.989569 23.214705 -0.719662 -12.832703 -7.760833 0.918001 0.012814 -1.306887 -1.123454 1.686160 -42.335987 -5.523682 -7.457720 3.017568 0.091275 9.131000 3.453314 -2.800545 0.035360 -2.950144 -1.410972
18.429144 95.377735 -20.731812 24.571455 38.370576 10.689392 4.608419 5.115193 2.852706 1.890933 -3.523423 1.216987 1.888730 2.293852 1.409059 1.518661 7.560473 1.058427 -4.922949 0.487197 -1.444085 -9.619242 -35.026146 0.278757 2.526526 0.108069 6.575933 46.170332 -37.007086 13.900696 9.004013 1.909191 -6.782532 8.506658 12.677842 -56.162562 -4.804760 -5.619932 -6.679113 -12.947092 -7.661187 -80.435765 -10.662124 -2.746676 -5.868817 3.063324 5.896271 2.894263 0.479834 -53.630824 -6.720580 -2.913509 23.377752 -0.741657 -12.892112 -7.754347 0.967982 0.013017 -1.336293 -1.116193 0.104941 -42.636780 -4.735502 -7.717270 4.158626 0.034438 10.708066 3.005972 -2.791408 0.036544 -2.940056 -1.522200
18.486836 95.382393 -20.763187 24.321192 37.969473 10.768663 4.762059 5.224196 2.720304 1.966157 -3.475534 1.155167 1.964048 2.341478 1.354882 1.571034 7.596267 1.017084 -4.969798 0.508817 -1.444113 -9.717762 -34.983295 0.308355 2.861639 -0.066132 6.683899 45.441201 -36.700907 13.745386 8.714734 1.922524 -6.138004 8.755398 12.496986 -55.940863 -4.823200 -5.674130 -6.685041 -13.092514 -7.780103 -80.335681 -10.686358 -2.711300 -5.923130 3.128939 5.848539 2.870510 0.799452 -53.284398 -7.068263 -2.825399 23.460272 -0.741891 -12.867571 -7.720037 1.008730 0.013233 -1.361546 -1.113608 -1.372902 -42.869052 -3.950273 -7.838124 5.286035 -0.037590 12.006087 2.567788 -2.783110 0.038597 -2.971469 -1.644397
18.586469 95.391311 -20.779750 23.916023 37.559434 10.749116 4.933202 5.296109 2.584252 2.049629 -3.444145 1.091903 2.047557 2.372576 1.300097 1.629547 7.619672 0.975273 -4.992498 0.533608 -1.435661 -9.769662 -34.935349 0.339246 2.962434 -0.298900 6.694190 45.007124 -36.006282 13.766124 8.084445 2.103638 -5.483368 8.918037 12.183757 -55.231425 -4.788272 -5.719781 -6.658591 -13.084661 -7.876954 -80.271911 -10.750006 -2.560353 -6.071891 3.306061 5.912151 2.773718 1.042184 -52.861272 -7.309162 -2.747907 23.447737 -0.722665 -12.717918 -7.654537 1.036233 0.013490 -1.383204 -1.117522 -2.652018 -43.028277 -3.225101 -7.803179 6.391330 -0.101192 12.906337 2.153182 -2.753262 0.043068 -3.078131 -1.800173
18.722002 95.404916 -20.786386 23.380872 37.131035 10.643635 5.118541 5.340656 2.447893 2.139614 -3.424940 1.028636 2.137532 2.391450 1.245969 1.692986 7.633902 0.933951 -5.000187 0.571039 -1.420304 -9.792641 -34.864334 0.373313 2.931462 -0.545238 6.655585 44.736856 -35.120591 13.898801 7.320969 2.381333 -4.808179 9.066612 11.820890 -54.230650 -4.728298 -5.758818 -6.613492 -12.966727 -7.957809 -80.228306 -10.839873 -2.339047 -6.287574 3.542118 6.033757 2.640161 1.221158 -52.364620 -7.458738 -2.658715 23.354565 -0.681870 -12.484362 -7.561308 1.054815 0.013766 -1.400703 -1.126102 -3.821205 -43.119952 -2.511338 -7.628516 7.483723 -0.164166 13.528412 1.746553 -2.712350 0.049027 -3.227558 -1.965680
